<?xml version="1.0" encoding="utf-8" ?>
<svg baseProfile="full" height="200mm" version="1.1" viewBox="0,0,200,200" width="200mm" xmlns="http://www.w3.org/2000/svg" xmlns:ev="http://www.w3.org/2001/xml-events" xmlns:xlink="http://www.w3.org/1999/xlink"><defs /><rect fill="#1a1a1a" height="200" width="200" x="0" y="0" /><rect fill="#1a1a1a" height="200" width="180" x="10" y="0" /><text alignment-baseline="middle" fill="#e1ed5e" style="dominant-baseline: central; font-size:9.0px; font-family:Arial;" text-anchor="middle" x="100.0" y="100.0">2025</text><line stroke="#e1ed5e" stroke-width="0.3" x1="100.0" x2="100.0" y1="15.0" y2="10.0" /><path d="M 100.0 14.0 a86.0,86.0 0 0,1 42.46469731375804,11.215312516191453" fill="none" id="id85" stroke="none" /><text fill="#e1ed5e" style="font-size:6.75px; font-family:Arial;" text-anchor="middle"><textPath startOffset="22.20632615414155" xlink:href="#id85">January</textPath></text><path d="M 100.0 79.0 l 0.0 -11.373418612838869 a32.37341861283887,32.37341861283887 0 0,0 0.5572551845647231,0.004796471305289103 l -0.1957747052921947 11.371733518142138" fill="#ff7b0b" stroke="none" /><path d="M 100.72285384407766 79.0124445844662 l 0.41675777419951726 -12.100270272516083 a33.10744513554747,33.10744513554747 0 0,0 0.5693836822319143,0.02451885908729771 l -0.6249822888207631 12.09130368690459" fill="#ff860c" stroke="none" /><path d="M 101.08401301168833 79.027996857942 l 1.6809771071404456 -32.52124909254587 a53.56466377185777,53.56466377185777 0 0,0 0.920388739525344,0.0555203622407911 l -2.2405278955054015 32.48749546092478" fill="#7bff26" stroke="none" /><path d="M 101.44485096284872 79.0497635885617 l 1.0241570263546222 -14.850204191483494 a35.88547823025466,35.88547823025466 0 0,0 0.6158799244575196,0.04780413546347325 l -1.279627140174483 14.830374793831556" fill="#ffab0f" stroke="none" /><path d="M 101.80526077348638 79.07773832637324 l 1.330232067806798 -15.416865983053773 a36.47414857411102,36.47414857411102 0 0,0 0.6250537896476073,0.05935638889489205 l -1.5954109845446496 15.391684049643702" fill="#ffb310" stroke="none" /><path d="M 102.16513564639614 79.11191278185805 l 0.8326408871817257 -8.0328802963419 a29.075918319446075,29.075918319446075 0 0,0 0.4973827612560277,0.05588674856814911 l -0.9707903519474786 8.017357594303151" fill="#ff4d07" stroke="none" /><path d="M 102.52436894288641 79.15227682838746 l 2.8879124359709767 -23.850079117254204 a45.02428588193874,45.02428588193874 0 0,0 0.7685973022917695,0.09978598872774834 l -3.2980244667705922 23.79683480536232" fill="#deff1b" stroke="none" /><path d="M 102.88285421437855 79.19881850522331 l 1.5895451185793679 -11.469333530912957 a32.578957868794745,32.578957868794745 0 0,0 0.5548212342470921,0.08176622761775651 l -1.7867353332551157 11.44027281913423" fill="#ff7e0b" stroke="none" /><path d="M 103.2404852339499 79.25152402106235 l 1.505576367973594 -9.64004241651151 a30.756904119234832,30.756904119234832 0 0,0 0.5223852099484756,0.08619803561069628 l -1.6712907840609448 9.61269811796119" fill="#ff6509" stroke="none" /><path d="M 103.95276090670814 79.375362276772 l 6.948110331740995 -36.25371274290359 a57.9135195399601,57.9135195399601 0 0,0 0.9774522224258978,0.19606772042554557 l -7.571128963634019 36.128741066400835" fill="#4dff2c" stroke="none" /><path d="M 104.307194497241 79.44645832069477 l 3.441560114360447 -16.422812876839522 a37.77954465438329,37.77954465438329 0 0,0 0.6353390987077223,0.13886051882869996 l -3.7237419372216967 16.361138859914952" fill="#ffc512" stroke="none" /><path d="M 104.66035177308747 79.52364482259891 l 3.8850302528986713 -17.069797132631255 a38.506325548644526,38.506325548644526 0 0,0 0.6450292014344253,0.15265757192186502 l -4.178283141295621 17.00039364856852" fill="#ffce13" stroke="none" /><path d="M 105.01212808612495 79.60689891045804 l 4.383685691192914 -17.836125475873775 a39.366928764229556,39.366928764229556 0 0,0 0.6566612012323536,0.16739756136568157 l -4.690055781110293 17.758024918339228" fill="#ffd914" stroke="none" /><path d="M 105.36241919743992 79.69619591428918 l 4.263755726616007 -16.14391895804577 a37.69747682196925,37.69747682196925 0 0,0 0.6259614161314722,0.1710989008582147 l -4.54101503197119 16.06813351636126" fill="#ffc312" stroke="none" /><path d="M 105.71112130821622 79.79150937346287 l 2.0589795398239894 -7.285586574899898 a28.570942377655204,28.570942377655204 0 0,0 0.4721141187574591,0.13782305748685253 l -2.1840838763048755 7.249065188494342" fill="#ff4606" stroke="none" /><path d="M 106.40334571778207 80.00007090966166 l 2.3500226180786403 -7.339957546215947 a28.706982748503698,28.706982748503698 0 0,0 0.46931429995961427,0.1547255459551185 l -2.476019740280672 7.298418276001592" fill="#ff4806" stroke="none" /><path d="M 107.08798089147638 80.2323363322302 l 2.5245722621773248 -7.040777359278014 a28.479706607205728,28.479706607205728 0 0,0 0.46003903990360545,0.16943626082566224 l -2.6453936278535064 6.996277830646028" fill="#ff4406" stroke="none" /><path d="M 107.76421540070413 80.48803036053334 l 5.6162585589733665 -14.11401678528199 a36.19038610491726,36.19038610491726 0 0,0 0.576833618816195,0.23530491654473848 l -5.8583760473779485 14.015250982553672" fill="#ffaf10" stroke="none" /><path d="M 108.09893153111575 80.62456947434976 l 2.915273182987704 -6.974336405148976 a28.55911278019012,28.55911278019012 0 0,0 0.451936049521684,0.19349543082520682 l -3.0348929902997033 6.9231214463609785" fill="#ff4506" stroke="none" /><path d="M 108.43124777332544 80.76684994638697 l 2.9743969817489324 -6.785119475432929 a28.408433282478583,28.408433282478583 0 0,0 0.446171870614519,0.20018431274687398 l -3.0907509708302316 6.7329148321695245" fill="#ff4306" stroke="none" /><path d="M 108.76106565485865 80.91482961587045 l 9.95559752644823 -21.687347470420107 a44.863255486445254,44.863255486445254 0 0,0 0.6990587955808448,0.32821747788028577 l -10.327434533328672 21.51276500989982" fill="#e0ff1b" stroke="none" /><path d="M 109.08828744355905 81.06846463323043 l 3.195885987076675 -6.6572529718329205 a28.384626217580095,28.384626217580095 0 0,0 0.43864889441779753,0.21524310745958058 l -3.3100061485049044 6.601254704238508" fill="#ff4306" stroke="none" /><path d="M 109.41281617654863 81.2277094730956 l 8.164262061807884 -16.282257773596225 a39.214474826898254,39.214474826898254 0 0,0 0.600802190965203,0.30775421749607706 l -8.443324740361843 16.139311030787646" fill="#ffd714" stroke="none" /><path d="M 109.73455568895987 81.39251694778311 l 10.372939648470577 -19.82774611166752 a43.37716230489379,43.37716230489379 0 0,0 0.6586201461171811,0.351812072595696 l -10.71270484111607 19.64625531257007" fill="#f2ff19" stroke="none" /><path d="M 110.05341064243156 81.56283822128135 l 5.3326376507055695 -9.779636639766762 a32.13904471306185,32.13904471306185 0 0,0 0.4834261916710955,0.26902615227053234 l -5.5001879314487 9.686395089936049" fill="#ff780b" stroke="none" /><path d="M 110.36928655335952 81.73862282372117 l 3.658103219879348 -6.4422949741256605 a28.408433282478583,28.408433282478583 0 0,0 0.4231547979190486,0.24511857170701276 l -3.768454750263725 6.378372245028598" fill="#ff4306" stroke="none" /><line stroke="#e1ed5e" stroke-width="0.3" x1="143.23703022742887" x2="145.7803849466894" y1="26.81831364943548" y2="22.513508569990506" /><path d="M 143.74570117128098 25.957352633546492 a86.0,86.0 0 0,1 28.547481713284135,27.462654790039103" fill="none" id="id86" stroke="none" /><text fill="#e1ed5e" style="font-size:6.75px; font-family:Arial;" text-anchor="middle"><textPath startOffset="19.985693538727396" xlink:href="#id86">February</textPath></text><path d="M 110.68208982089419 81.91981866633111 l 11.546585671203855 -19.543400797076703 a43.69951883581739,43.69951883581739 0 0,0 0.6443347009336157,0.38820444780232716 l -11.88128243835511 19.341749739815764" fill="#eeff19" stroke="none" /><path d="M 110.99172775467656 82.1063720568725 l 20.086960010594108 -32.69991733420875 a59.37669287642296,59.37669287642296 0 0,0 0.8662800710862031,0.5424645010414939 l -20.646859234052574 32.34930849184431" fill="#3eff2d" stroke="none" /><path d="M 111.2981086023043 82.29822771554956 l 8.985954190513388 -14.079110091624432 a37.702356530923595,37.702356530923595 0 0,0 0.5440503445003451,0.35386547780790883 l -9.226971560798013 13.922345689656996" fill="#ffc412" stroke="none" /><path d="M 111.60114157652 82.49532879139004 l 9.982264284772933 -15.061987914711395 a39.06956225795095,39.06956225795095 0 0,0 0.5573836878130216,0.3763479541185214 l -10.240052666992495 14.887928048294203" fill="#ffd513" stroke="none" /><path d="M 112.19680574252982 82.90503203632743 l 12.993913732425371 -18.212189623056442 a43.372430465907755,43.372430465907755 0 0,0 0.6040224014702071,0.43884796253603064 l -13.305481450249367 17.985822425703738" fill="#f2ff19" stroke="none" /><path d="M 112.48926042617603 83.11751280151076 l 4.496309637856084 -6.077933145060615 a28.560295739936628,28.560295739936628 0 0,0 0.39270929736689386,0.29578050105919224 l -4.60026508898136 5.999636054495575" fill="#ff4606" stroke="none" /><path d="M 114.42810811169701 84.74124197986012 l 5.149925325361106 -5.4464149944765445 a28.495676563783594,28.495676563783594 0 0,0 0.3535048204507873,0.3400713571921552 l -5.242913389424311 5.356960550522087" fill="#ff4506" stroke="none" /><path d="M 114.94478906791727 85.2469230424477 l 5.578382362330438 -5.5068227404284515 a28.838587020302782,28.838587020302782 0 0,0 0.34570013987228015,0.35627438203858175 l -5.672346765905828 5.409984162839753" fill="#ff4a06" stroke="none" /><path d="M 115.4437574822437 85.77008943001954 l 5.713193429254573 -5.264148421183409 a28.76864452529046,28.76864452529046 0 0,0 0.332423549758019,0.36707038640879647 l -5.802960619628628 5.1650252475050635" fill="#ff4906" stroke="none" /><path d="M 115.92442197804982 86.31012108654704 l 13.311030158532754 -11.443202857523774 a38.55364393850487,38.55364393850487 0 0,0 0.42829314010713493,0.5069639872763887 l -13.506033912127009 11.212379920618279" fill="#ffcf13" stroke="none" /><path d="M 116.15771136456269 86.58626213691792 l 5.991304404115982 -4.9738347790393265 a28.786832531393028,28.786832531393028 0 0,0 0.3132302210365331,0.3839832142325568 l -6.076033117228923 4.869967395198669" fill="#ff4906" stroke="none" /><path d="M 116.38621287248628 86.86637796730983 l 5.668733517840051 -4.5435149663142935 a28.2648515432461,28.2648515432461 0 0,0 0.3010151766792566,0.3822587058128616 l -5.746102775113272 4.445263866548394" fill="#ff4106" stroke="none" /><line stroke="#e1ed5e" stroke-width="0.3" x1="172.23445277983987" x2="176.4835382374775" y1="55.19839476539836" y2="52.563006222186495" /><path d="M 173.08426987136738 54.67131705675599 a86.0,86.0 0 0,1 12.851231095245387,41.99856678651699" fill="none" id="id87" stroke="none" /><text fill="#e1ed5e" style="font-size:6.75px; font-family:Arial;" text-anchor="middle"><textPath startOffset="22.20632615414155" xlink:href="#id87">March</textPath></text><path d="M 118.03404312379186 89.2402003453031 l 20.624968554157544 -12.305644829826571 a45.01704025349137,45.01704025349137 0 0,0 0.39130596105974735,0.6688687311420346 l -20.83373418968762 11.948796686330642" fill="#deff1b" stroke="none" /><path d="M 118.21658344932153 89.55222093294921 l 7.696244621236652 -4.4140364559773335 a29.872198098814692,29.872198098814692 0 0,0 0.2519824586192254,0.4482486769252861 l -7.771084721148311 4.280904269117253" fill="#ff5808" stroke="none" /><path d="M 118.73160827565052 90.50648371742162 l 8.267319845448478 -4.190026526877223 a30.268489613895085,30.268489613895085 0 0,0 0.23153951330933367,0.46676953009900224 l -8.33821937171122 4.047097408279272" fill="#ff5e08" stroke="none" /><path d="M 118.89224826269711 90.83032412892265 l 7.095734226022278 -3.444035988475053 a28.887384109846263,28.887384109846263 0 0,0 0.2132739146465484,0.4492092558750112 l -7.153966334510583 3.3213843169595014" fill="#ff4a06" stroke="none" /><path d="M 119.47837535516314 92.15188598940014 l 4.124679136644672 -1.6618917918608334 a25.44689355709424,25.44689355709424 0 0,0 0.16020206970103135,0.4076967933140671 l -4.1526747562274045 1.5906459936509818" fill="#ff1802" stroke="none" /><path d="M 119.61058180528143 92.48833698450437 l 7.403506702195731 -2.835848932583958 a28.928048351132496,28.928048351132496 0 0,0 0.1741129797707749,0.4665362222583487 l -7.451224270468131 2.707989573296276" fill="#ff4b07" stroke="none" /><path d="M 119.85752413597 93.16781622104841 l 16.633758446701986 -5.723014302508105 a38.59075930055158,38.59075930055158 0 0,0 0.21071051889540374,0.6299976317561882 l -16.72980625936916 5.435843567829603" fill="#ffcf13" stroke="none" /><path d="M 120.08093135843002 93.85539295169968 l 23.889261962258548 -7.309926258493169 a45.98263114657904,45.98263114657904 0 0,0 0.2250830151026709,0.7588680321656196 l -24.01155087447292 6.89762883958102" fill="#d2ff1c" stroke="none" /><path d="M 120.28053869075195 94.5502522615342 l 9.893456546146895 -2.658550803808781 a31.244431404764697,31.244431404764697 0 0,0 0.13510042762758442,0.5205970585819486 l -9.937753305644785 2.487857319677982" fill="#ff6c09" stroke="none" /><path d="M 120.37134235888165 94.90015583598534 l 17.108484941747307 -4.283007253435232 a38.63645112076047,38.63645112076047 0 0,0 0.15595732235079426,0.6465437866716532 l -17.179675064358918 3.987878235104173" fill="#ffd013" stroke="none" /><path d="M 120.78858239683441 97.02765380044208 l 10.166473122579113 -1.4535997295037868 a31.269865039314634,31.269865039314634 0 0,0 0.07159905809579714,0.5334961471285636 l -10.189988179732746 1.278385240310559" fill="#ff6c0a" stroke="none" /><path d="M 120.83666639777658 97.38593545837742 l 10.241046693332743 -1.2847907875032687 a31.32132378828776,31.32132378828776 0 0,0 0.06250788682987778,0.5355294014352127 l -10.26164493316621 1.1083176477432033" fill="#ff6d0a" stroke="none" /><path d="M 120.87857604477298 97.74499172005257 l 10.216070292345558 -1.1033953200813065 a31.27548409811055,31.27548409811055 0 0,0 0.05320238988877423,0.5357408056740334 l -10.23354980791656 0.9273789837028381" fill="#ff6c0a" stroke="none" /><line stroke="#e1ed5e" stroke-width="0.3" x1="184.98032266829074" x2="189.97916517819016" y1="98.17113171792111" y2="98.06355123074" /><path d="M 185.9800911702706 98.14961562048488 a86.0,86.0 0 0,1 -9.607161424134198,41.387399972396054" fill="none" id="id88" stroke="none" /><text fill="#e1ed5e" style="font-size:6.75px; font-family:Arial;" text-anchor="middle"><textPath startOffset="21.466115282336823" xlink:href="#id88">April</textPath></text><path d="M 120.99513854157772 99.54816195383933 l 7.9066987063903325 -0.1701606916287593 a28.908529515315102,28.908529515315102 0 0,0 0.006424566737394547,0.49758977393215975 l -7.908456280245442 0.034034659636136826" fill="#ff4b06" stroke="none" /><path d="M 120.89721153311464 102.0752229133903 l 7.891450213737391 0.7836700259015734 a28.9302664006572,28.9302664006572 0 0,0 -0.05347649326833143,0.4951259120594778 l -7.876791418968009 -0.9193922598458427" fill="#ff4b07" stroke="none" /><path d="M 120.81339534386255 102.79330883721812 l 7.389646896103067 0.991744289568443 a28.45589954230724,28.45589954230724 0 0,0 -0.06933205258373377,0.4849082142897735 l -7.371480792502732 -1.1187979758386257" fill="#ff4406" stroke="none" /><path d="M 120.70491114924044 103.5080841355445 l 10.103394033392998 1.7118429568822942 a31.24738880413097,31.24738880413097 0 0,0 -0.0944170470110816,0.5295409411399513 l -10.072430544042728 -1.8855026487554638" fill="#ff6c09" stroke="none" /><path d="M 120.64145759157962 103.86396538481128 l 18.620188701259945 3.485595156306818 a39.94362164065251,39.94362164065251 0 0,0 -0.13232763974928133,0.674735784200631 l -18.557431128535 -3.805594667575394" fill="#ffe115" stroke="none" /><path d="M 120.5718875245553 104.21870165774334 l 8.00326336625992 1.6412388211969438 a29.169815749325195,29.169815749325195 0 0,0 -0.10510295947159859,0.4910060360744306 l -7.973826368063879 -1.7787586766875434" fill="#ff4e07" stroke="none" /><path d="M 120.49622156327973 104.57218783832717 l 8.618226996722797 1.9225081335456409 a29.830055157845322,29.830055157845322 0 0,0 -0.1161091346125081,0.5001951130523067 l -8.583857296179737 -2.0705719039465125" fill="#ff5808" stroke="none" /><path d="M 120.41448212921028 104.9243191809786 l 8.787259424189354 2.119635945545513 a30.039291163009036,30.039291163009036 0 0,0 -0.1255766614623122,0.5016163397668137 l -8.749471448431981 -2.270580124709723" fill="#ff5b08" stroke="none" /><path d="M 119.9155931802556 106.66101706037122 l 4.739915851374062 1.5853236238038781 a25.998004928998945,25.998004928998945 0 0,0 -0.1456001788968265,0.4231822738071788 l -4.711924841534004 -1.6666786007003573" fill="#ff2003" stroke="none" /><path d="M 119.67450827220406 107.3425965602758 l 7.316534247482079 2.730556639862778 a28.809456636545008,28.809456636545008 0 0,0 -0.17739178785276571,0.46311398156381317 l -7.268448180035807 -2.8560941882597346" fill="#ff4906" stroke="none" /><path d="M 119.41010516605496 108.01547362559984 l 7.022353269089806 2.899906359934183 a28.59755897195165,28.59755897195165 0 0,0 -0.1918065772140225,0.45337408978699356 l -6.971395710683475 -3.02035497538734" fill="#ff4606" stroke="none" /><path d="M 118.97047184881838 109.00673069616215 l 6.849006007072863 3.2517458254969283 a28.581736885342096,28.581736885342096 0 0,0 -0.21483495655458804,0.4426236425146619 l -6.792017793903561 -3.3691584239768653" fill="#ff4606" stroke="none" /><path d="M 118.81262510543309 109.33194174019688 l 9.647624596376188 4.78567292762731 a31.7693697922779,31.7693697922779 0 0,0 -0.2472282224526655,0.48780473744665037 l -9.563817704137254 -4.951031876776654" fill="#ff730a" stroke="none" /><path d="M 118.64920377521936 109.65438752849418 l 6.694541075887921 3.4656543330780436 a28.538410984626218,28.538410984626218 0 0,0 -0.22959490262379806,0.4343070306660699 l -6.6338936650392295 -3.580376378830248" fill="#ff4506" stroke="none" /><line stroke="#e1ed5e" stroke-width="0.3" x1="174.80103733775053" x2="179.2010983576182" y1="140.37084112569926" y2="142.7455964860345" /><path d="M 175.68104954172406 140.8457921977663 a86.0,86.0 0 0,1 -30.038265399797805,32.042727171017184" fill="none" id="id89" stroke="none" /><text fill="#e1ed5e" style="font-size:6.75px; font-family:Arial;" text-anchor="middle"><textPath startOffset="22.206326154141568" xlink:href="#id89">May</textPath></text><path d="M 118.48025628344425 109.97397251340804 l 7.768604390012593 4.192790698630164 a29.82783710832062,29.82783710832062 0 0,0 -0.247746592701374,0.4497320286153462 l -7.695281387859711 -4.325893245643315" fill="#ff5808" stroke="none" /><path d="M 117.94076556474637 110.91462005526583 l 26.924412849297454 16.379999805507374 a52.51552634667293,52.51552634667293 0 0,0 -0.47647927311856736,0.7682363025705562 l -26.638468936510925 -16.8410324394432" fill="#87ff25" stroke="none" /><path d="M 117.35343817320211 111.8261652097733 l 6.3071122972514955 4.298223284597993 a28.632456284473655,28.632456284473655 0 0,0 -0.28106040781910435,0.40488847993917315 l -6.232190982270255 -4.406153026724186" fill="#ff4706" stroke="none" /><path d="M 116.93607887273984 112.41649034213515 l 14.922869825656381 10.94052941412802 a39.50370848491961,39.50370848491961 0 0,0 -0.40677294683930293,0.5449388361761811 l -14.732335612121986 -11.195781129813517" fill="#ffdb14" stroke="none" /><path d="M 116.71984013943494 112.70617746262583 l 6.318886937897558 4.802013543767538 a28.93647693932637,28.93647693932637 0 0,0 -0.30478816346216975,0.3939797871327525 l -6.23529195721732 -4.9100713250135435" fill="#ff4b07" stroke="none" /><path d="M 116.27256486870786 113.27417163493432 l 6.968882023106292 5.684791354324885 a29.99345147283183,29.99345147283183 0 0,0 -0.3297908534321791,0.3972543279748845 l -6.8699951697805695 -5.803906939413539" fill="#ff5a08" stroke="none" /><path d="M 116.0416608686014 113.55231037782055 l 11.049374013612875 9.334728326429335 a35.46464030043422,35.46464030043422 0 0,0 -0.3979765777226357,0.4629366703022861 l -10.887054926319461 -9.52354209589315" fill="#ffa60f" stroke="none" /><path d="M 115.80600337817218 113.82643327865902 l 6.816818924372733 5.96306920702678 a30.05688768923835,30.05688768923835 0 0,0 -0.3439955696772497,0.3864826692043864 l -6.7131645050471445 -6.079526045972033" fill="#ff5b08" stroke="none" /><path d="M 115.56566222782051 114.09645910891815 l 15.617212866016635 14.143144013982553 a42.06954817509683,42.06954817509683 0 0,0 -0.4907184256898565,0.5325779330202042 l -15.371448032331058 -14.409873201804093" fill="#fffc17" stroke="none" /><path d="M 115.07121518719521 114.62390073753431 l 12.938817762716116 12.554792979385493 a39.028750146696396,39.028750146696396 0 0,0 -0.47198652343422337,0.4781198563471989 l -12.720790614226358 -12.775653329713355" fill="#ffd513" stroke="none" /><path d="M 114.81725581225074 114.88116024355365 l 17.839447369177805 17.916386024575992 a46.283250792160544,46.283250792160544 0 0,0 -0.5693942879217969,0.5572721523431705 l -17.528403128880214 -18.220808279841734" fill="#cfff1d" stroke="none" /><path d="M 114.29624159901734 115.38237550388516 l 10.290072641132864 11.071844318792213 a36.115268161013965,36.115268161013965 0 0,0 -0.45900863539522146,0.4192935054438324 l -10.097964456270779 -11.247330590822628" fill="#ffae10" stroke="none" /><path d="M 113.75828350139079 115.86535959552629 l 6.339014888016692 7.309832703302934 a30.675575636662366,30.675575636662366 0 0,0 -0.4019004706437067,0.34250830012707256 l -6.212248940795938 -7.417865393652954" fill="#ff6409" stroke="none" /><path d="M 113.48314897796784 116.09983520530334 l 14.549648498112226 17.373311197367002 a43.661072644055864,43.661072644055864 0 0,0 -0.580338552130296,0.4775791191557596 l -14.248439817437239 -17.62118543537994" fill="#efff19" stroke="none" /><path d="M 112.34349029814194 116.9893568818739 l 8.083168156745923 11.125526511073387 a34.751907053162775,34.751907053162775 0 0,0 -0.4869779309943526,0.34744582369847016 l -7.890462897902687 -11.263016596616076" fill="#ff9c0e" stroke="none" /><path d="M 111.7513745106137 117.40417183066458 l 5.424774286172918 8.034268989882918 a30.694207252669873,30.694207252669873 0 0,0 -0.44042577368327274,0.29189018711387527 l -5.285673813749681 -8.126457198088112" fill="#ff6409" stroke="none" /><line stroke="#e1ed5e" stroke-width="0.3" x1="143.8653032363475" x2="146.44561519142675" y1="172.8068346515853" y2="177.08958963109032" /><path d="M 144.38136562736335 173.6633856474863 a86.0,86.0 0 0,1 -40.68145358897372,12.25698825130547" fill="none" id="id90" stroke="none" /><text fill="#e1ed5e" style="font-size:6.75px; font-family:Arial;" text-anchor="middle"><textPath startOffset="21.466115282336833" xlink:href="#id90">June</textPath></text><path d="M 110.21172684928248 118.3499491758327 l 5.338955887050052 9.593829782693893 a31.979345147283183,31.979345147283183 0 0,0 -0.4833102210060339,0.2635392680161035 l -5.17302285417537 -9.684309702469768" fill="#ff760a" stroke="none" /><path d="M 109.2508944713604 118.85261126421891 l 3.6354354215229936 7.408737716155786 a29.252622931580802,29.252622931580802 0 0,0 -0.4539552019603847,0.2179260837531771 l -3.507367551562376 -7.470218076408523" fill="#ff4f07" stroke="none" /><path d="M 108.92500713936063 119.00905698771935 l 3.5211934046593782 7.499665271836041 a29.28515432460979,29.28515432460979 0 0,0 -0.4581481164059275,0.21031332949586448 l -3.3915772924860312 -7.559165671665981" fill="#ff5007" stroke="none" /><path d="M 108.59647513512805 119.15986991738527 l 14.590319754577111 32.51898297343125 a56.642133552399955,56.642133552399955 0 0,0 -0.8930018744035231,0.39146577883251105 l -14.028397205515834 -32.765313305558216" fill="#5aff2a" stroke="none" /><path d="M 107.93186726928326 119.44442032107085 l 6.429643657128666 15.761823734503059 a38.02279075225913,38.02279075225913 0 0,0 -0.6081454306549559,0.24199361754891302 l -6.157377150431843 -15.87016419645804" fill="#ffc812" stroke="none" /><path d="M 106.91757812671514 119.82793768551818 l 3.5109895414173957 10.063591703125107 a31.658467316042717,31.658467316042717 0 0,0 -0.5160786462428083,0.17508189683183795 l -3.3372411622373606 -10.12253658685507" fill="#ff720a" stroke="none" /><path d="M 106.2309692047433 120.05430185196036 l 2.5495713213540676 8.205765618712002 a29.59272385870203,29.59272385870203 0 0,0 -0.4877515381893327,0.14695553736956807 l -2.407944808724489 -8.248436525187296" fill="#ff5407" stroke="none" /><path d="M 105.88484417918355 120.15858648285463 l 3.0717767797409463 10.52239889196583 a31.961600751085555,31.961600751085555 0 0,0 -0.5294497485136709,0.14962778746055796 l -2.89019586312267 -10.573715472764908" fill="#ff760a" stroke="none" /><path d="M 105.53697534728816 120.25689768951611 l 2.2640452417581742 8.28295774320057 a29.58680905996949,29.58680905996949 0 0,0 -0.49242250157955775,0.1300532582256324 l -2.121132297367119 -8.320702350729785" fill="#ff5407" stroke="none" /><path d="M 105.18746579009965 120.34920634021253 l 2.8775732952347886 11.288042198865876 a32.649048233775375,32.649048233775375 0 0,0 -0.5457781494632052,0.13413899042165153 l -2.6828418610283724 -11.335902447601558" fill="#ff7f0b" stroke="none" /><path d="M 104.83641907484287 120.43548508189849 l 2.1996313205781064 9.294176609129144 a30.550921253374018,30.550921253374018 0 0,0 -0.5127897218714147,0.11670927119793369 l -2.0393214493138294 -9.330662613904762" fill="#ff6209" stroke="none" /><path d="M 104.48393922423573 120.51570834832081 l 1.838388770827482 8.41132003959156 a29.609876775026407,29.609876775026407 0 0,0 -0.4988679632870616,0.10454263210915707 l -1.6933293461110421 -8.441718652427257" fill="#ff5507" stroke="none" /><path d="M 104.13013068566511 120.58985236759428 l 2.7592724045902095 13.755741833951252 a35.02975472362399,35.02975472362399 0 0,0 -0.5922236847855396,0.11350107869339802 l -2.5220811052329655 -13.801200110993118" fill="#ffa00e" stroke="none" /><path d="M 103.7750983002368 120.6578951692458 l 6.1584829761924444 33.700127945221425 a55.25821851895317,55.25821851895317 0 0,0 -0.9371557790546375,0.16293654471859242 l -5.577478225665757 -33.80114306846102" fill="#69ff28" stroke="none" /><path d="M 103.06178313531738 120.77559828337769 l 0.45729479227708164 3.102954220317269 a24.136469897899307,24.136469897899307 0 0,0 -0.41155141810083157,0.05703727648371293 l -0.4038147829894196 -3.1103660622935845" fill="#ff0400" stroke="none" /><path d="M 101.62511606390274 120.93702456842531 l 0.3279602844134653 4.2252443900791175 a25.23795329186715,25.23795329186715 0 0,0 -0.43341646660806077,0.029890937113781265 l -0.2551810570264742 -4.230263671709184" fill="#ff1502" stroke="none" /><path d="M 101.26447882468166 120.96189622390904 l 0.5787428020488776 9.594108117972684 a30.611547940382586,30.611547940382586 0 0,0 -0.5262444786100423,0.027200828565507602 l -0.4135102550253557 -9.602648753300393" fill="#ff6309" stroke="none" /><path d="M 100.90346689309514 120.98055641714683 l 0.32578246399766864 7.565409887023278 a28.57242107733834,28.57242107733834 0 0,0 -0.4915540113630737,0.016930114043802263 l -0.19550810095994264 -7.569896799493174" fill="#ff4606" stroke="none" /><line stroke="#e1ed5e" stroke-width="0.3" x1="102.19456741930631" x2="102.32365962044197" y1="184.97166512339345" y2="189.96999836594603" /><path d="M 102.22038585953345 185.97133177190398 a86.0,86.0 0 0,1 -42.740103519485714,-10.115201625700543" fill="none" id="id91" stroke="none" /><text fill="#e1ed5e" style="font-size:6.75px; font-family:Arial;" text-anchor="middle"><textPath startOffset="22.20632615414155" xlink:href="#id91">July</textPath></text><path d="M 100.54218724476979 120.99299961872073 l 0.2126804391383809 8.234794198519152 a29.237540194812816,29.237540194812816 0 0,0 -0.5032202664185109,0.008663393245890735 l -0.07090048282720199 -8.237235069044202" fill="#ff4f07" stroke="none" /><path d="M 100.18074693466247 120.99922214144158 l 0.10302638911578231 11.969630552867239 a32.97007393498416,32.97007393498416 0 0,0 -0.5675466475564673,0.0 l 0.10302638911577407 -11.969630552867239" fill="#ff840c" stroke="none" /><path d="M 99.81925306533755 120.99922214144158 l -0.08795488201374817 10.218619249506474 a31.218997770214763,31.218997770214763 0 0,0 -0.5373240112050729,-0.009250520140334537 l 0.26383858311148906 -10.215591252086979" fill="#ff6b09" stroke="none" /><path d="M 99.45781275523022 120.99299961872073 l -0.45034437784093373 17.436926898422474 a38.44274146226969,38.44274146226969 0 0,0 -0.661360957911972,-0.02277860862231352 l 0.7504256874275488 -17.426591491374065" fill="#ffcd13" stroke="none" /><path d="M 99.09653310690486 120.98055641714683 l -0.7302527486785425 16.958129965270743 a37.973845792747326,37.973845792747326 0 0,0 -0.652810067590858,-0.033742823832143415 l 1.0220508846828895 -16.9430473346764" fill="#ffc712" stroke="none" /><path d="M 98.73552117531835 120.96189622390904 l -2.1104524056868286 34.98602226466254 a56.04961858936745,56.04961858936745 0 0,0 -0.962551414641116,-0.06638318112135076 l 2.712366581106875 -34.9445107390249" fill="#61ff29" stroke="none" /><path d="M 98.37488393609728 120.93702456842531 l -0.8197519502626385 10.561194430289529 a31.592960920079804,31.592960920079804 0 0,0 -0.5418278283207691,-0.04675118492011647 l 1.0014240963249492 -10.545518993090749" fill="#ff710a" stroke="none" /><path d="M 98.01472825383883 120.90594882070398 l -1.0776523805532103 11.34824265641171 a32.399295857293744,32.399295857293744 0 0,0 -0.5547490801530603,-0.05750201038999965 l 1.272834057311864 -11.328011277565949" fill="#ff7c0b" stroke="none" /><path d="M 97.65516085044442 120.86867818915974 l -1.1720343177880748 10.43091037148812 a31.49654970073935,31.49654970073935 0 0,0 -0.5382499026711582,-0.0651745673438766 l 1.3514116435106223 -10.409190275418894" fill="#ff6f0a" stroke="none" /><path d="M 97.2962882734958 120.8252237178851 l -0.6885279072931628 5.303356702131431 a26.34786527402887,26.34786527402887 0 0,0 -0.4492579637090995,-0.06226306012218996 l 0.7797144621890933 -5.290719076516637" fill="#ff2503" stroke="none" /><path d="M 96.93821686468263 120.77559828337769 l -1.123025115728305 7.620238807049485 a28.70254664945429,28.70254664945429 0 0,0 -0.48816763268040914,-0.0762417445502485 l 1.2540286120172315 -7.599778755152131" fill="#ff4806" stroke="none" /><path d="M 96.58105272829116 120.7198165907248 l -2.750942512317085 16.671513122911854 a37.89695340922427,37.89695340922427 0 0,0 -0.6427161397510013,-0.11174443927725561 l 3.037507623540136 -16.621690105113593" fill="#ffc612" stroke="none" /><path d="M 95.86986931433489 120.58985236759428 l -1.6239396607501886 8.095791734818434 a29.25705903063021,29.25705903063021 0 0,0 -0.4929236808810208,-0.10329694993579851 l 1.7630548030605961 -8.066638804156094" fill="#ff5007" stroke="none" /><path d="M 95.51606077576429 120.51570834832081 l -1.6530533178553113 7.563340638080167 a28.741880061025704,28.741880061025704 0 0,0 -0.4824254090513619,-0.10979845245780182 l 1.7829988762995357 -7.533765452044678" fill="#ff4806" stroke="none" /><path d="M 95.16358092515715 120.4354850818985 l -2.275234069172052 9.613623459605485 a30.87919258303016,30.87919258303016 0 0,0 -0.5161923393359311,-0.1268675181115515 l 2.4403796932511934 -9.573034683179904" fill="#ff6709" stroke="none" /><path d="M 94.46302465271185 120.25689768951611 l -2.0249305617563995 7.4081621544447716 a28.67992254430231,28.67992254430231 0 0,0 -0.47508815020650447,-0.13426465677562402 l 2.152149880067518 -7.372208704330626" fill="#ff4706" stroke="none" /><path d="M 94.11515582081647 120.15858648285463 l -2.148130423064485 7.358440018339521 a28.665579157375895,28.665579157375895 0 0,0 -0.4724702056443756,-0.14235139722845483 l 2.274475603149106 -7.32037325200534" fill="#ff4706" stroke="none" /><path d="M 93.42475214034765 119.94407469862007 l -3.367196698196948 10.213397868371377 a31.754139185541604,31.754139185541604 0 0,0 -0.5176382356064266,-0.17561099422047952 l 3.5425046667406006 -10.153923887252775" fill="#ff730a" stroke="none" /><path d="M 93.08242187328487 119.8279376855182 l -3.6429926165733435 10.441953710831397 a32.05919493017252,32.05919493017252 0 0,0 -0.5194817588903021,-0.1862676764623651 l 3.822193936093372 -10.377698493329074" fill="#ff770b" stroke="none" /><path d="M 92.7421414339146 119.70592522655815 l -3.5998842205965653 9.774101910283461 a31.41596056800845,31.41596056800845 0 0,0 -0.5058415148316359,-0.19126597777147092 l 3.7675959561884844 -9.710687682405357" fill="#ff6e0a" stroke="none" /><path d="M 92.40401165467489 119.57807347666478 l -3.493744574932308 9.00485689117998 a30.65886633024293,30.65886633024293 0 0,0 -0.4903650967989763,-0.19512639199855072 l 3.6482307477731424 -8.943383654775364" fill="#ff6309" stroke="none" /><path d="M 92.06813273071674 119.44442032107085 l -5.619236000206 13.775165791594448 a35.877197512029106,35.877197512029106 0 0,0 -0.5698128249289688,-0.23818180703349823 l 5.85552028463243 -13.676398941540977" fill="#ffab0f" stroke="none" /><path d="M 91.7346041902142 119.30500536409082 l -6.373967503552074 14.887306026038008 a37.194423189766454,37.194423189766454 0 0,0 -0.586395454102965,-0.2570585345048543 l 6.629283632312783 -14.775382938238701" fill="#ffbd11" stroke="none" /><path d="M 91.40352486487194 119.15986991738527 l -15.212159367743439 33.90494244059213 a58.16120173688534,58.16120173688534 0 0,0 -0.9098960083425898,-0.41768862984907623 l 15.793523371853448 -33.63806674040898" fill="#4aff2c" stroke="none" /><path d="M 91.07499286063937 119.00905698771935 l -5.596265420159076 11.919287752841825 a34.167672808355825,34.167672808355825 0 0,0 -0.530229130102655,-0.2545422044204503 l 5.800607218261973 -11.821191271921814" fill="#ff940d" stroke="none" /><path d="M 90.7491055286396 118.85261126421891 l -7.114405767208349 14.498611644563741 a37.150062199272384,37.150062199272384 0 0,0 -0.5716617823351078,-0.2866430851667536 l 7.362921457226217 -14.374000718487686" fill="#ffbc11" stroke="none" /><path d="M 90.42595943632237 118.69057910512821 l -3.6142480650150337 7.055786834766813 a28.927604741227555,28.927604741227555 0 0,0 -0.44122737936823164,-0.23082931119166986 l 3.735166346909761 -6.992528104630427" fill="#ff4b07" stroke="none" /><path d="M 90.10565033884886 118.52300852407294 l -4.171860047246074 7.810053400456428 a29.854453702617064,29.854453702617064 0 0,0 -0.4511963128254503,-0.24602820475443596 l 4.305679171940165 -7.737084543942227" fill="#ff5808" stroke="none" /><line stroke="#e1ed5e" stroke-width="0.3" x1="58.666819895761336" x2="56.23545636021788" y1="174.27360380694188" y2="178.64263932499728" /><path d="M 58.180547188652646 175.14741091055294 a86.0,86.0 0 0,1 -31.652253787137756,-30.449443065178592" fill="none" id="id92" stroke="none" /><text fill="#e1ed5e" style="font-size:6.75px; font-family:Arial;" text-anchor="middle"><textPath startOffset="22.20632615414155" xlink:href="#id92">August</textPath></text><path d="M 89.7882731507175 118.34994917583269 l -2.3527358467916195 4.22774559582147 a25.83830536322028,25.83830536322028 0 0,0 -0.38677634055212756,-0.21962170040792248 l 2.4251609542649546 -4.186620729618914" fill="#ff1e03" stroke="none" /><path d="M 89.4739219176387 118.17145234162733 l -8.51548722602386 14.700515147491355 a37.988780659547004,37.988780659547004 0 0,0 -0.5630156705574589,-0.3326395821189095 l 8.7672707676097 -14.551756993078696" fill="#ffc712" stroke="none" /><path d="M 88.8546689885994 117.79835938074946 l -5.587157967571712 8.922323197232926 a31.527306654148575,31.527306654148575 0 0,0 -0.4574735271412472,-0.2919812496323412 l 5.739913296759883 -8.82482751877678" fill="#ff700a" stroke="none" /><path d="M 88.54995079064634 117.60387380957326 l -8.83372438684693 13.581406204574847 a37.201520948245516,37.201520948245516 0 0,0 -0.533798071764843,-0.35377225484654706 l 9.066197157351736 -13.427335928636984" fill="#ffbd11" stroke="none" /><path d="M 88.24862548938628 117.40417183066458 l -9.078112645647904 13.444983158377257 a37.22281422368266,37.22281422368266 0 0,0 -0.5279313786421405,-0.36311601616538236 l 9.308200908912937 -13.28672635284677" fill="#ffbd11" stroke="none" /><path d="M 87.65650970185807 116.9893568818739 l -5.204691135078056 7.163642779958027 a29.85474944255369,29.85474944255369 0 0,0 -0.41315423297114723,-0.3056416244293319 l 5.327230338467767 -7.0729912067889265" fill="#ff5808" stroke="none" /><path d="M 87.07902340077011 116.55440617244103 l -6.0148275764001 7.706220810187137 a30.775683605210656,30.775683605210656 0 0,0 -0.4148012690931486,-0.3295432150533424 l 6.146586338210606 -7.601543681128664" fill="#ff6509" stroke="none" /><path d="M 86.79598089348748 116.32954008644616 l -8.395654913635116 10.382988873179825 a34.35265813871611,34.35265813871611 0 0,0 -0.4566120500194323,-0.37576063117588987 l 8.573137092199238 -10.236933123146754" fill="#ff970d" stroke="none" /><path d="M 86.51685102203217 116.09983520530335 l -8.468132777426566 10.111550531405888 a34.18911395376129,34.18911395376129 0 0,0 -0.4479335987581342,-0.3817387305735799 l 8.640931852761756 -9.964287410609357" fill="#ff940d" stroke="none" /><path d="M 85.18274418774928 114.88116024355367 l -4.089917341909835 4.107556494875979 a26.796502757892267,26.796502757892267 0 0,0 -0.32405824243295234,-0.3282692886924373 l 4.1600162093983215 -4.036546712202879" fill="#ff2c04" stroke="none" /><path d="M 84.9287848128048 114.62390073753433 l -7.515621121162987 7.29255709587265 a31.47215115596761,31.47215115596761 0 0,0 -0.3739093108297661,-0.3920424175352842 l 7.64003698337171 -7.1621075617548655" fill="#ff6f0a" stroke="none" /><path d="M 84.67929136418377 114.36230785411682 l -10.946548329606433 10.261777100978062 a36.00436568477878,36.00436568477878 0 0,0 -0.4199713667772323,-0.45579597328438415 l 11.121566104379394 -10.071829872892335" fill="#ffad10" stroke="none" /><path d="M 84.43433777217949 114.09645910891817 l -7.893823912521025 7.148746026171075 a31.64974298791222,31.64974298791222 0 0,0 -0.36222550657377434,-0.406964196561866 l 8.015708268743138 -7.011807659868343" fill="#ff710a" stroke="none" /><path d="M 84.19399662182784 113.82643327865904 l -7.500292695611 6.560943588655078 a30.964957164652034,30.964957164652034 0 0,0 -0.34748209984143963,-0.40420018487206527 l 7.612117305023219 -6.430866304621483" fill="#ff6809" stroke="none" /><path d="M 83.50135304334701 112.99209946851258 l -13.693663988320166 10.783274840177322 a38.4297289050581,38.4297289050581 0 0,0 -0.40478066904555215,-0.5232335797246727 l 13.877251474583787 -10.545963266339397" fill="#ffcd13" stroke="none" /><path d="M 83.28015986056508 112.70617746262583 l -7.219179984814059 5.486187742030891 a30.067238587020302,30.067238587020302 0 0,0 -0.3096048374301872,-0.41476627463717164 l 7.312546088939332 -5.361108587884414" fill="#ff5b08" stroke="none" /><path d="M 82.85270091963577 112.12312394758628 l -10.968395327251127 7.754644940593592 a34.432803661542074,34.432803661542074 0 0,0 -0.337997471935939,-0.4869105673663822 l 11.100253706349198 -7.564693111040199" fill="#ff980e" stroke="none" /><path d="M 82.64656182679789 111.8261652097733 l -7.955739837442852 5.421743676643021 a30.627517896960452,30.627517896960452 0 0,0 -0.29314457077458367,-0.43821135893033875 l 8.047887513628169 -5.283995403506859" fill="#ff6309" stroke="none" /><path d="M 82.44556493220864 111.52570212397912 l -5.440000145523986 3.5717367713389576 a27.507757305480578,27.507757305480578 0 0,0 -0.25647071903893526,-0.3980482514161205 l 5.500675727939966 -3.477566920001389" fill="#ff3605" stroke="none" /><path d="M 82.05923443525364 110.91462005526583 l -22.055708907046604 13.41802733563334 a46.816617767867626,46.816617767867626 0 0,0 -0.4129206164635733,-0.6920787043424339 l 22.283410399208407 -13.036386537404795" fill="#c8ff1d" stroke="none" /><line stroke="#e1ed5e" stroke-width="0.3" x1="26.63291911575756" x2="22.317208475507996" y1="142.92168965132927" y2="145.44649492493687" /><path d="M 25.769776987707644 143.4266507060508 a86.0,86.0 0 0,1 -11.730757126820373,-40.83630448921669" fill="none" id="id93" stroke="none" /><text fill="#e1ed5e" style="font-size:6.75px; font-family:Arial;" text-anchor="middle"><textPath startOffset="21.46611528233685" xlink:href="#id93">September</textPath></text><path d="M 81.87401531095188 110.60418214915194 l -14.85262883415936 8.689182091516102 a38.2076282126511,38.2076282126511 0 0,0 -0.3272174126570241,-0.5705311402053158 l 14.99999824296876 -8.432231105452479" fill="#ffca12" stroke="none" /><path d="M 81.69416730710424 110.29060199501025 l -9.829851903487128 5.525839512776538 a32.276563783593474,32.276563783593474 0 0,0 -0.2680854355095925,-0.4866529361285151 l 9.92351374844824 -5.355816058250201" fill="#ff7a0b" stroke="none" /><path d="M 81.51974371655577 109.97397251340807 l -10.017205459684572 5.40638237823368 a32.38303016077925,32.38303016077925 0 0,0 -0.26052532008292945,-0.4928157240665789 l 10.108783287992388 -5.233151639080974" fill="#ff7c0b" stroke="none" /><path d="M 81.35079622478065 109.6543875284942 l -8.593385013850634 4.4486547578781375 a30.676610726440558,30.676610726440558 0 0,0 -0.2387244062554188,-0.47102590133223615 l 8.66868808989232 -4.300074644843215" fill="#ff6409" stroke="none" /><path d="M 81.18737489456691 109.33194174019688 l -13.30505855361835 6.5999311938883345 a35.8520596174158,35.8520596174158 0 0,0 -0.2694824216316204,-0.5552136066178422 l 13.416694231864689 -6.369928631305208" fill="#ffab0f" stroke="none" /><path d="M 80.87730276802145 108.67885076344099 l -9.969565800180902 4.524695062963298 a31.94829245393733,31.94829245393733 0 0,0 -0.22296700413032816,-0.5027317327438783 l 10.045973889042509 -4.3524149937267245" fill="#ff760a" stroke="none" /><path d="M 80.73074385275274 108.34839909993369 l -8.093494631028982 3.5065039759022034 a29.82044360990494,29.82044360990494 0 0,0 -0.20000858204120295,-0.4727612063653888 l 8.15265419426249 -3.366668243870656" fill="#ff5808" stroke="none" /><path d="M 80.32549172779595 107.34259656027581 l -7.628657241055195 2.847042052727247 a29.1426076751555,29.1426076751555 0 0,0 -0.17135261994879583,-0.4714888170771676 l 7.676534122009214 -2.7153054386439623" fill="#ff4e07" stroke="none" /><path d="M 80.20201598880116 107.00284435728193 l -7.336940958873802 2.5951862353508823 a28.78239643234362,28.78239643234362 0 0,0 -0.1611939870414533,-0.4685051795752517 l 7.380525776858484 -2.468508352686334" fill="#ff4906" stroke="none" /><path d="M 80.0844068197444 106.66101706037122 l -10.924384163842918 3.6537957283415943 a32.519218401596056,32.519218401596056 0 0,0 -0.1729832707787266,-0.5323877646824182 l 10.985659685637895 -3.465209063681373" fill="#ff7d0b" stroke="none" /><path d="M 79.97269907076064 106.31721596034903 l -14.814232808003245 4.672856730205367 a36.53374017134139,36.53374017134139 0 0,0 -0.18401388620691508,-0.6013680270964022 l 14.892473466716291 -4.417161730556916" fill="#ffb410" stroke="none" /><path d="M 79.76711848015287 105.62410040840567 l -16.181556270561455 4.497960270297263 a37.795071001056215,37.795071001056215 0 0,0 -0.16883944359087483,-0.6283143794163326 l 16.2565837904941 -4.218754957705391" fill="#ffc512" stroke="none" /><path d="M 79.58551787078972 104.9243191809786 l -16.484915929429658 3.976441194751504 a37.95772796620115,37.95772796620115 0 0,0 -0.1477449144056772,-0.6364812244159992 l 16.55092140976589 -3.6920913129869306" fill="#ffc712" stroke="none" /><path d="M 79.35854240842038 103.8639653848113 l -42.115404716772936 7.8837681530452235 a63.846949888510736,63.846949888510736 0 0,0 -0.1929198150579783,-1.0819967756284334 l 42.244870974170105 -7.157652626683576" fill="#33ff54" stroke="none" /><path d="M 79.23777060512086 103.15116336523772 l -8.031993073263655 1.219046463697879 a29.123976059147985,29.123976059147985 0 0,0 -0.07095980348743608,-0.49629270031907213 l 8.051786927767688 -1.0806082913984063" fill="#ff4e07" stroke="none" /><line stroke="#e1ed5e" stroke-width="0.3" x1="15.007084014347285" x2="10.007500721073583" y1="101.09737516637583" y2="101.16192664675087" /><path d="M 14.007167355692545 101.11028546245083 a86.0,86.0 0 0,1 10.666146001902534,-42.60595125391555" fill="none" id="id94" stroke="none" /><text fill="#e1ed5e" style="font-size:6.75px; font-family:Arial;" text-anchor="middle"><textPath startOffset="22.20632615414155" xlink:href="#id94">October</textPath></text><path d="M 79.00175016825051 100.2711162175752 l -15.967147043755151 0.20615777727458967 a36.96847787818331,36.96847787818331 0 0,0 -0.0027386648208589364,-0.6363692551523984 l 15.968330005865514 0.06872095608148414" fill="#ffba11" stroke="none" /><path d="M 79.00486145842228 99.54816195383935 l -9.59261744781612 -0.20644348293317205 a30.59483863396315,30.59483863396315 0 0,0 0.015863140529848836,-0.5264204063412377 l 9.587642612830626 0.3715340366994041" fill="#ff6309" stroke="none" /><path d="M 79.01574976396665 99.18683210126434 l -10.88541050267746 -0.4218242865850649 a31.89358056566131,31.89358056566131 0 0,0 0.025980194475841482,-0.5484008434421213 l 10.87653669996812 0.6091362366501952" fill="#ff750a" stroke="none" /><path d="M 79.16333360222342 97.38593545837743 l -30.190546963998262 -3.787555878861692 a51.427203379884986,51.427203379884986 0 0,0 0.11775360456054092,-0.8774011280915783 l 30.120877360379886 4.3066753490179295" fill="#93ff23" stroke="none" /><path d="M 79.21141760316559 97.0276538004421 l -2.816815099605337 -0.4027475032373622 a23.845461800258185,23.845461800258185 0 0,0 0.061594084327726346,-0.40582805775393993 l 2.809465121838308 0.4511746733833942" fill="#ff0000" stroke="none" /><path d="M 79.46518482838121 95.60439243477599 l -8.267907979203116 -1.769798196780956 a29.455204788170402,29.455204788170402 0 0,0 0.11039475946826044,-0.49487806045919464 l 8.236218832732819 1.9118544267901099" fill="#ff5207" stroke="none" /><path d="M 79.54389044137918 95.25157060432595 l -8.383139840242217 -1.9459588604264493 a29.60603215585025,29.60603215585025 0 0,0 0.11950573529712852,-0.4954284253110745 l 8.348401304684275 2.089972517396921" fill="#ff5507" stroke="none" /><path d="M 79.81627453868168 94.20196356495316 l -31.427488871691015 -9.027953035197106 a53.69848609318155,53.69848609318155 0 0,0 0.2628517954480037,-0.8862055836236364 l 31.267431179131304 9.56758800556728" fill="#7aff26" stroke="none" /><path d="M 80.02781315780177 93.51064311812611 l -16.01792354751463 -5.204538853340368 a37.84224152094825,37.84224152094825 0 0,0 0.2066235153587679,-0.6177780113852739 l 15.925962738384092 5.479489967647964" fill="#ffc512" stroke="none" /><path d="M 80.2630227832202 92.82701384747504 l -16.119882553979274 -5.858429741800515 a38.15143762469194,38.15143762469194 0 0,0 0.22962698370606785,-0.615286152978639 l 16.01665098177158 6.135039031808496" fill="#ffc912" stroke="none" /><path d="M 80.803312248108 91.48605970444005 l -37.14799010427153 -16.475538589549 a61.63762469193757,61.63762469193757 0 0,0 0.43850087223133233,-0.966178546468494 l 36.858886915076845 17.112539144859564" fill="#30ff39" stroke="none" /><path d="M 81.26839172434947 90.50648371742162 l -8.033202220597316 -4.071371499991336 a30.006020420138483,30.006020420138483 0 0,0 0.2374627401062861,-0.45870243101323055 l 7.961930047330915 4.2090466532649025" fill="#ff5a08" stroke="none" /><path d="M 81.6062741919709 89.86733742301443 l -15.312274852629326 -8.435165120273107 a38.481927003872784,38.481927003872784 0 0,0 0.3246085389085058,-0.5774423699241058 l 15.164808672428391 8.697491000131997" fill="#ffce13" stroke="none" /><line stroke="#e1ed5e" stroke-width="0.3" x1="26.266209847984257" x2="21.92892807433627" y1="57.711370442889674" y2="55.22380399835377" /><path d="M 25.39875349325466 57.213857153982495 a86.0,86.0 0 0,1 29.58750427330802,-30.492523968695096" fill="none" id="id95" stroke="none" /><text fill="#e1ed5e" style="font-size:6.75px; font-family:Arial;" text-anchor="middle"><textPath startOffset="21.46611528233685" xlink:href="#id95">November</textPath></text><path d="M 82.15384107792192 88.93136811851018 l -7.517880321597772 -4.662776464795283 a29.846468724328133,29.846468724328133 0 0,0 0.2745482908118172,-0.43426946314964565 l 7.436504434539993 4.791493575659144" fill="#ff5808" stroke="none" /><path d="M 82.7489923806493 88.02491185347247 l -7.937569014574383 -5.510002123705018 a30.66256307945077,30.66256307945077 0 0,0 0.30470904567375756,-0.43098933585518323 l 7.841547349096747 5.645817959891987" fill="#ff6409" stroke="none" /><path d="M 83.39014120810768 87.1503855733568 l -8.810145121997405 -6.815649023801286 a32.13874897312522,32.13874897312522 0 0,0 0.3422714315549599,-0.43464995986672567 l 8.691519609848473 6.96629137762106" fill="#ff780b" stroke="none" /><path d="M 84.07557802195018 86.31012108654704 l -7.427534644943219 -6.385289843167169 a30.79490670109142,30.79490670109142 0 0,0 0.3490208740581403,-0.3989911934070853 l 7.316521907307235 6.512196592777196" fill="#ff6509" stroke="none" /><path d="M 84.31358615837235 86.03803664274997 l -7.67549980885839 -6.83171106932499 a31.27548409811055,31.27548409811055 0 0,0 0.36139024329610875,-0.39905613289923675 l 7.556765924946237 6.962819989493784" fill="#ff6c0a" stroke="none" /><path d="M 84.80347519578584 85.50635884689758 l -45.58957441264248 -43.480923459307235 a84.0,84.0 0 0,0 1.0069429451875265,-1.0377432177995054 l 44.83436720375183 44.259230872656865" fill="#4dd2ff" stroke="none" /><path d="M 85.57189188830299 84.74124197986013 l -10.279328567596558 -10.871126415756967 a35.961483393967846,35.961483393967846 0 0,0 0.45344368046499456,-0.42142648291467655 l 10.090677003336706 11.046457484746291" fill="#ffac10" stroke="none" /><path d="M 86.93701828274178 83.55741782278169 l -4.909908938520316 -6.180180218549955 a28.89315103861049,28.89315103861049 0 0,0 0.39207654404121994,-0.3060219616392614 l 4.802799839319671 6.263780569412439" fill="#ff4a06" stroke="none" /><line stroke="#e1ed5e" stroke-width="0.3" x1="56.762969772571076" x2="54.21961505331055" y1="26.818313649435495" y2="22.513508569990535" /><path d="M 56.25429882871897 25.957352633546506 a86.0,86.0 0 0,1 42.265352541879196,-11.944610805530505" fill="none" id="id96" stroke="none" /><text fill="#e1ed5e" style="font-size:6.75px; font-family:Arial;" text-anchor="middle"><textPath startOffset="22.20632615414155" xlink:href="#id96">December</textPath></text><path d="M 89.94658935756843 81.56283822128135 l -3.596150174642816 -6.595055639189584 a28.511794390329776,28.511794390329776 0 0,0 0.43291080351062505,-0.23124595858481795 l 3.4820943246038856 6.655980324276154" fill="#ff4506" stroke="none" /><path d="M 91.90106846888425 80.62456947434976 l -2.946353462422924 -7.048691126213258 a28.63970191292102,28.63970191292102 0 0,0 0.4564842952588181,-0.18621140567413103 l 2.8245852975757253 7.098363418070966" fill="#ff4706" stroke="none" /><path d="M 92.23578459929587 80.48803036053334 l -2.970065244867878 -7.463963825609667 a29.033183898603454,29.033183898603454 0 0,0 0.46593674988045997,-0.18077622019189357 l 2.8411453299877407 7.513982749692112" fill="#ff4c07" stroke="none" /><path d="M 92.91201910852362 80.23233633223022 l -2.704545920865252 -7.542705737538621 a29.012925712944487,29.012925712944487 0 0,0 0.4715539838382377,-0.1645159257559723 l 2.574309932963729 7.588142516466806" fill="#ff4c07" stroke="none" /><path d="M 93.94186890950719 79.89281104454417 l -4.83655136514546 -16.052715059990007 a37.7654970073935,37.7654970073935 0 0,0 0.6240474711477334,-0.18217656933642096 l 4.559513676274305 16.133589958245125" fill="#ffc412" stroke="none" /><path d="M 95.33964822691252 79.52364482259891 l -1.8202772880166371 -7.997817779770721 a29.202347142354185,29.202347142354185 0 0,0 0.49109625548176267,-0.1073346201575447 l 1.6823383083813535 8.027965898024133" fill="#ff4f07" stroke="none" /></svg>