<?xml version="1.0" encoding="utf-8" ?>
<svg baseProfile="full" height="200mm" version="1.1" viewBox="0,0,200,200" width="200mm" xmlns="http://www.w3.org/2000/svg" xmlns:ev="http://www.w3.org/2001/xml-events" xmlns:xlink="http://www.w3.org/1999/xlink"><defs /><rect fill="#1a1a1a" height="200" width="200" x="0" y="0" /><rect fill="#1a1a1a" height="200" width="180" x="10" y="0" /><text alignment-baseline="middle" fill="#e1ed5e" style="dominant-baseline: central; font-size:9.0px; font-family:Arial;" text-anchor="middle" x="100.0" y="100.0">2019</text><line stroke="#e1ed5e" stroke-width="0.3" x1="100.0" x2="100.0" y1="15.0" y2="10.0" /><path d="M 100.0 14.0 a86.0,86.0 0 0,1 42.46469731375804,11.215312516191453" fill="none" id="id13" stroke="none" /><text fill="#e1ed5e" style="font-size:6.75px; font-family:Arial;" text-anchor="middle"><textPath startOffset="22.20632615414155" xlink:href="#id13">January</textPath></text><line stroke="#e1ed5e" stroke-width="0.3" x1="143.23703022742887" x2="145.7803849466894" y1="26.81831364943548" y2="22.513508569990506" /><path d="M 143.74570117128098 25.957352633546492 a86.0,86.0 0 0,1 28.547481713284135,27.462654790039103" fill="none" id="id14" stroke="none" /><text fill="#e1ed5e" style="font-size:6.75px; font-family:Arial;" text-anchor="middle"><textPath startOffset="19.985693538727396" xlink:href="#id14">February</textPath></text><line stroke="#e1ed5e" stroke-width="0.3" x1="172.23445277983987" x2="176.4835382374775" y1="55.19839476539836" y2="52.563006222186495" /><path d="M 173.08426987136738 54.67131705675599 a86.0,86.0 0 0,1 12.851231095245387,41.99856678651699" fill="none" id="id15" stroke="none" /><text fill="#e1ed5e" style="font-size:6.75px; font-family:Arial;" text-anchor="middle"><textPath startOffset="22.20632615414155" xlink:href="#id15">March</textPath></text><path d="M 120.87857604477298 97.74499172005257 l 16.526658376469687 -1.784975728176241 a37.6227727964595,37.6227727964595 0 0,0 0.06399969448066613,0.6444681894111436 l -16.55493519663258 1.5002320080606624" fill="red" stroke="none" /><line stroke="#e1ed5e" stroke-width="0.3" x1="184.98032266829074" x2="189.97916517819016" y1="98.17113171792111" y2="98.06355123074" /><path d="M 185.9800911702706 98.14961562048488 a86.0,86.0 0 0,1 -9.607161424134198,41.387399972396054" fill="none" id="id16" stroke="none" /><text fill="#e1ed5e" style="font-size:6.75px; font-family:Arial;" text-anchor="middle"><textPath startOffset="21.466115282336823" xlink:href="#id16">April</textPath></text><path d="M 120.99513854157772 99.54816195383933 l 9.383509176395906 -0.20194324719491996 a30.385681943183126,30.385681943183126 0 0,0 0.00675284577867594,0.5230153474556002 l -9.385595029292297 0.040391641678857094" fill="red" stroke="none" /><path d="M 120.99980553446 99.90962569577887 l 8.99638642081412 -0.03871665201619716 a29.996469730497182,29.996469730497182 0 0,0 -0.002222170917384537,0.5163542616630858 l -8.995719952607233 -0.11614708785057343" fill="red" stroke="none" /><path d="M 120.32669344350535 105.2749913415812 l 10.063638519816344 2.6116203407296372 a31.396989038257377,31.396989038257377 0 0,0 -0.1402577113692885,0.5219511211544559 l -10.017192732105277 -2.7844623950596414" fill="red" stroke="none" /><line stroke="#e1ed5e" stroke-width="0.3" x1="174.80103733775053" x2="179.2010983576182" y1="140.37084112569926" y2="142.7455964860345" /><path d="M 175.68104954172406 140.8457921977663 a86.0,86.0 0 0,1 -30.038265399797805,32.042727171017184" fill="none" id="id17" stroke="none" /><text fill="#e1ed5e" style="font-size:6.75px; font-family:Arial;" text-anchor="middle"><textPath startOffset="22.206326154141568" xlink:href="#id17">May</textPath></text><path d="M 116.93607887273984 112.41649034213515 l 10.561409925193564 7.742975532935835 a34.095688210690575,34.095688210690575 0 0,0 -0.35108611570661014,0.4703372256620547 l -10.426562542791862 -7.923625638107206" fill="red" stroke="none" /><path d="M 115.80600337817218 113.82643327865902 l 10.838639146431856 9.48118998864416 a35.40031465445569,35.40031465445569 0 0,0 -0.40515011175536514,0.4551904455239985 l -10.673830185028152 -9.666354603909026" fill="red" stroke="none" /><line stroke="#e1ed5e" stroke-width="0.3" x1="143.8653032363475" x2="146.44561519142675" y1="172.8068346515853" y2="177.08958963109032" /><path d="M 144.38136562736335 173.6633856474863 a86.0,86.0 0 0,1 -40.68145358897372,12.25698825130547" fill="none" id="id18" stroke="none" /><text fill="#e1ed5e" style="font-size:6.75px; font-family:Arial;" text-anchor="middle"><textPath startOffset="21.466115282336833" xlink:href="#id18">June</textPath></text><line stroke="#e1ed5e" stroke-width="0.3" x1="102.19456741930631" x2="102.32365962044197" y1="184.97166512339345" y2="189.96999836594603" /><path d="M 102.22038585953345 185.97133177190398 a86.0,86.0 0 0,1 -42.740103519485714,-10.115201625700543" fill="none" id="id19" stroke="none" /><text fill="#e1ed5e" style="font-size:6.75px; font-family:Arial;" text-anchor="middle"><textPath startOffset="22.20632615414155" xlink:href="#id19">July</textPath></text><path d="M 100.18074693466247 120.99922214144158 l 0.05123178358066757 5.952120881727597 a26.952341361711923,26.952341361711923 0 0,0 -0.46395743648624194,0.0 l 0.05123178358066347 -5.952120881727597" fill="red" stroke="none" /><path d="M 96.93821686468263 120.77559828337769 l -2.2839325497061083 15.497526461522664 a36.664918586357295,36.664918586357295 0 0,0 -0.6235901896552539,-0.0973919628441701 l 2.550358602969879 -15.455916191331388" fill="red" stroke="none" /><path d="M 96.58105272829116 120.7198165907248 l -1.76136067922663 10.674358895698733 a31.818702753866027,31.818702753866027 0 0,0 -0.5396316053435477,-0.09382187162556951 l 1.9448412560422277 -10.642458445552158" fill="red" stroke="none" /><path d="M 96.22490169976321 120.6578951692458 l -3.6185047060429643 19.80099190587153 a41.12890600017907,41.12890600017907 0 0,0 -0.6953377908238143,-0.13326314252927066 l 3.9588101114384737 -19.735771564993794" fill="red" stroke="none" /><path d="M 95.86986931433489 120.58985236759428 l -4.032240761507858 20.101843817727275 a41.502270372596925,41.502270372596925 0 0,0 -0.6992313156138561,-0.146530720685625 l 4.377663538551101 -20.029457116315108" fill="red" stroke="none" /><path d="M 93.76903079525671 120.05430185196036 l -2.8623198477782394 9.212343110363186 a30.64676839641345,30.64676839641345 0 0,0 -0.502429914325081,-0.16086219235313923 l 3.0204711071942607 -9.161708071350342" fill="red" stroke="none" /><path d="M 90.7491055286396 118.85261126421891 l -5.820723715930472 11.86218714661435 a34.21333827912152,34.21333827912152 0 0,0 -0.526471741429807,-0.26398386052697537 l 6.024049365043039 -11.760235445178072" fill="red" stroke="none" /><path d="M 90.42595943632237 118.69057910512821 l -4.540324732849564 8.863686968723009 a30.958890267456287,30.958890267456287 0 0,0 -0.47221020001667535,-0.24703805861640013 l 4.692225835392735 -8.784219491161892" fill="red" stroke="none" /><line stroke="#e1ed5e" stroke-width="0.3" x1="58.666819895761336" x2="56.23545636021788" y1="174.27360380694188" y2="178.64263932499728" /><path d="M 58.180547188652646 175.14741091055294 a86.0,86.0 0 0,1 -31.652253787137756,-30.449443065178592" fill="none" id="id20" stroke="none" /><text fill="#e1ed5e" style="font-size:6.75px; font-family:Arial;" text-anchor="middle"><textPath startOffset="22.20632615414155" xlink:href="#id20">August</textPath></text><path d="M 89.1626897886671 117.98757091392108 l -10.175408262533137 16.888958065352078 a40.717399368132924,40.717399368132924 0 0,0 -0.59722885381181,-0.3668667410097932 l 10.464616316277256 -16.711302857513907" fill="red" stroke="none" /><path d="M 87.07902340077011 116.55440617244103 l -5.447630890674401 6.9795261797112 a29.853839168084317,29.853839168084317 0 0,0 -0.4023764519117774,-0.3196721888403546 l 5.566964835303537 -6.884720076865714" fill="red" stroke="none" /><path d="M 86.79598089348748 116.32954008644616 l -10.02212427315537 12.394459501282947 a36.939435412696184,36.939435412696184 0 0,0 -0.490995231351317,-0.4040556486169632 l 10.233989633051376 -12.220108733808804" fill="red" stroke="none" /><path d="M 85.97065885151581 115.62618273729859 l -6.310072167729987 7.0282944676375 a30.445312799785114,30.445312799785114 0 0,0 -0.3869460810897673,-0.35346607067246877 l 6.430117798286611 -6.9186356303784535" fill="red" stroke="none" /><path d="M 84.9287848128048 114.62390073753433 l -16.14727616332652 15.668024167995899 a43.49936685383916,43.49936685383916 0 0,0 -0.5168003356760096,-0.5418630858157812 l 16.414583050381488 -15.387753965597618" fill="red" stroke="none" /><path d="M 84.19399662182784 113.82643327865904 l -7.322869346270502 6.405741034091517 a30.729230887299984,30.729230887299984 0 0,0 -0.34483683017720124,-0.4011231386362749 l 7.432048686018482 -6.278740796293712" fill="red" stroke="none" /><path d="M 83.50135304334701 112.99209946851258 l -17.882379936466165 14.081740125642028 a43.76125912945601,43.76125912945601 0 0,0 -0.46093772330424926,-0.5958241424011331 l 18.122124476988482 -13.771837989127643" fill="red" stroke="none" /><path d="M 83.28015986056508 112.70617746262583 l -17.55603531403222 13.341640732203707 a43.05025517708907,43.05025517708907 0 0,0 -0.4432920308546237,-0.5938621170781209 l 17.783088611581924 -13.03746573561628" fill="red" stroke="none" /><path d="M 83.06392112726016 112.41649034213515 l -17.274232888681652 12.664404047819044 a42.419296248449115,42.419296248449115 0 0,0 -0.42665774099419224,-0.5925902857003561 l 17.489670422051454 -12.365180156667547" fill="red" stroke="none" /><path d="M 82.05923443525364 110.91462005526583 l -9.604084373642761 5.842834941392224 a32.241759506785534,32.241759506785534 0 0,0 -0.28437097437119163,-0.47662211003400345 l 9.703236223712185 -5.676650737472109" fill="red" stroke="none" /><line stroke="#e1ed5e" stroke-width="0.3" x1="26.63291911575756" x2="22.317208475507996" y1="142.92168965132927" y2="145.44649492493687" /><path d="M 25.769776987707644 143.4266507060508 a86.0,86.0 0 0,1 -11.730757126820373,-40.83630448921669" fill="none" id="id21" stroke="none" /><text fill="#e1ed5e" style="font-size:6.75px; font-family:Arial;" text-anchor="middle"><textPath startOffset="21.46611528233685" xlink:href="#id21">September</textPath></text><path d="M 81.87401531095188 110.60418214915194 l -15.401557448657183 9.010319900847561 a38.843593712027214,38.843593712027214 0 0,0 -0.33266394244648845,-0.5800276239826092 l 15.554373387256046 -8.743872431006645" fill="red" stroke="none" /><path d="M 79.97269907076064 106.31721596034903 l -24.80197587609463 7.823292734564574 a47.00657448740743,47.00657448740743 0 0,0 -0.23676367128400352,-0.7737573768104665 l 24.932966319884766 -7.395208385202059" fill="red" stroke="none" /><path d="M 79.86692584326677 105.97154293290107 l -18.555256715688664 5.503556548103171 a40.35424207927757,40.35424207927757 0 0,0 -0.19179288059011976,-0.6676561781963267 l 18.64724223316489 -5.183342894402249" fill="red" stroke="none" /><path d="M 79.76711848015287 105.62410040840567 l -20.864859835185463 5.799770369103626 a42.65593942262187,42.65593942262187 0 0,0 -0.19055408250880843,-0.7091226288739172 l 20.961601994036045 -5.43975680705417" fill="red" stroke="none" /><path d="M 79.67330655649465 105.27499134158121 l -7.502424706844249 1.9469583422144434 a28.750936928409715,28.750936928409715 0 0,0 -0.12019080789193756,-0.4801025320016547 l 7.534826829031247 -1.8175279708153969" fill="red" stroke="none" /><path d="M 79.58551787078972 104.9243191809786 l -23.58915722580586 5.690104635274888 a45.265729525076424,45.265729525076424 0 0,0 -0.17619024352953844,-0.7590229577981641 l 23.683608035265955 -5.283213020128149" fill="red" stroke="none" /><path d="M 79.50377843672027 104.57218783832718 l -17.344489356813337 3.869116220000865 a38.77080108977884,38.77080108977884 0 0,0 -0.1396966635181722,-0.6526163045429313 l 17.40852005905595 -3.56998609604177" fill="red" stroke="none" /><path d="M 79.4281124754447 104.21870165774334 l -18.101871687037217 3.7121725463065887 a39.47858175259974,39.47858175259974 0 0,0 -0.13078702755019025,-0.6668802357885847 l 18.163088647563075 -3.400028583450049" fill="red" stroke="none" /><path d="M 79.29508885075956 103.50808413554451 l -13.663795370152734 2.315090532089426 a34.858533403256544,34.858533403256544 0 0,0 -0.09514428477204809,-0.5924635520978652 l 13.701621409286073 -2.079547750298347" fill="red" stroke="none" /><path d="M 79.18660465613746 102.79330883721812 l -23.664085886859958 3.1758922146235258 a44.876248704928315,44.876248704928315 0 0,0 -0.09616016487546955,-0.7664911268876409 l 23.715247560982277 -2.7680833334484762" fill="red" stroke="none" /><path d="M 79.1416061653843 102.43462659150553 l -25.04095788656272 2.9228224584685054 a46.21095918445658,46.21095918445658 0 0,0 -0.08541919433187775,-0.7908756523869478 l 25.087559382395646 -2.4913504841967753" fill="red" stroke="none" /><path d="M 79.10278846688536 102.07522291339032 l -14.34907466944902 1.424952247471026 a35.41965439173201,35.41965439173201 0 0,0 -0.05502764401222469,-0.6072254662952875 l 14.37147690973832 -1.1777453926271721" fill="red" stroke="none" /><path d="M 79.07016306316243 101.71520430193888 l -10.60372611288164 0.8689774650554115 a31.639272969135725,31.639272969135725 0 0,0 -0.039810403485858965,-0.5431813260516822 l 10.617113075031833 -0.6863230025069686" fill="red" stroke="none" /><path d="M 79.04373962182676 101.35467743843564 l -24.710540610668275 1.5973657156734562 a45.76211611516865,45.76211611516865 0 0,0 -0.04404854084743111,-0.7865162869669635 l 24.73437550240324 -1.171777712371055" fill="red" stroke="none" /><path d="M 79.0235259727143 100.99374915477108 l -25.3777745983144 1.2022583978718933 a46.40623680945498,46.40623680945498 0 0,0 -0.030932777987355387,-0.798237553144368 l 25.394709509152957 -0.7652435977135285" fill="red" stroke="none" /><line stroke="#e1ed5e" stroke-width="0.3" x1="15.007084014347285" x2="10.007500721073583" y1="101.09737516637583" y2="101.16192664675087" /><path d="M 14.007167355692545 101.11028546245083 a86.0,86.0 0 0,1 10.666146001902534,-42.60595125391555" fill="none" id="id22" stroke="none" /><text fill="#e1ed5e" style="font-size:6.75px; font-family:Arial;" text-anchor="middle"><textPath startOffset="22.20632615414155" xlink:href="#id22">October</textPath></text><path d="M 79.3925641242962 95.95851677861259 l -29.36930609921425 -5.759841182556223 a50.92878065003006,50.92878065003006 0 0,0 0.17611828138076113,-0.8588152871471382 l 29.265808521918494 6.264532125866764" fill="red" stroke="none" /><path d="M 79.46518482838121 95.60439243477599 l -7.245665971582304 -1.550980804725822 a28.4098054514524,28.4098054514524 0 0,0 0.10647672158140073,-0.4773142648624278 l 7.2178948629988655 1.675473239138209" fill="red" stroke="none" /><path d="M 79.62865764111835 94.90015583598534 l -10.569355215503977 -2.64597509401167 a31.89552448804697,31.89552448804697 0 0,0 0.13791574383024297,-0.5314456203505419 l 10.522243139803427 2.8275171399110754" fill="red" stroke="none" /><path d="M 79.91906864156998 93.8553929516997 l -30.672215744212526 -9.385456764173256 a53.076028702625955,53.076028702625955 0 0,0 0.2748441459415232,-0.8713310505703403 l 30.5061161145028 9.91203798117001" fill="red" stroke="none" /><path d="M 80.02781315780177 93.51064311812611 l -19.3830940593212 -6.297949033808491 a41.38059119223341,41.38059119223341 0 0,0 0.2259433605440687,-0.6755418894130126 l 19.271813405005357 6.630664026143825" fill="red" stroke="none" /><path d="M 80.14247586403 93.16781622104843 l -9.376959568843333 -3.226238609781585 a30.916450288433253,30.916450288433253 0 0,0 0.1774706111698716,-0.5017333162267494 l 9.32003587686365 3.3871695524349454" fill="red" stroke="none" /><path d="M 80.2630227832202 92.82701384747504 l -7.925236640185833 -2.8802593249794204 a29.432394059937838,29.432394059937838 0 0,0 0.1771485504089569,-0.4746700423779044 l 7.8744835012752485 3.0162525043866664" fill="red" stroke="none" /><path d="M 80.38941819471856 92.48833698450439 l -3.982768420770503 -1.525564847725655 a25.264949284352976,25.264949284352976 0 0,0 0.15905663130016265,-0.4047817775227919 l 3.955918239588649 1.5938956301442102" fill="red" stroke="none" /><path d="M 80.803312248108 91.48605970444005 l -19.263475066821655 -8.543561197830218 a42.07306122971055,42.07306122971055 0 0,0 0.2993151364751331,-0.659501227498127 l 19.113557613383172 8.873884434170417" fill="red" stroke="none" /><path d="M 80.95270993114464 91.15688171328213 l -12.441487854417783 -5.776231073378718 a34.71697727069237,34.71697727069237 0 0,0 0.2563134695430002,-0.5398615349418976 l 12.340216191033031 5.989535023961149" fill="red" stroke="none" /><line stroke="#e1ed5e" stroke-width="0.3" x1="26.266209847984257" x2="21.92892807433627" y1="57.711370442889674" y2="55.22380399835377" /><path d="M 25.39875349325466 57.213857153982495 a86.0,86.0 0 0,1 29.58750427330802,-30.492523968695096" fill="none" id="id23" stroke="none" /><text fill="#e1ed5e" style="font-size:6.75px; font-family:Arial;" text-anchor="middle"><textPath startOffset="21.46611528233685" xlink:href="#id23">November</textPath></text><path d="M 81.78341655067847 89.55222093294921 l -45.36006403618809 -26.015412211394647 a73.29088909069979,73.29088909069979 0 0,0 0.6370734644274119,-1.08896506110409 l 44.905530897290355 26.792356684852628" fill="red" stroke="none" /><path d="M 82.7489923806493 88.02491185347247 l -3.675666529248079 -2.551528099472448 a25.474463104846446,25.474463104846446 0 0,0 0.25315233177396035,-0.35806602032506274 l 3.6312015776702404 2.6144206201292968" fill="red" stroke="none" /><path d="M 83.6137871275137 86.86637796730984 l -12.041134412764457 -9.651022445070412 a36.431498701730604,36.431498701730604 0 0,0 0.3964120185363043,-0.48595426244082585 l 11.87322390215176 9.85686087711932" fill="red" stroke="none" /><path d="M 84.31358615837235 86.03803664274997 l -6.845713841758154 -6.093145748788243 a30.1646180018163,30.1646180018163 0 0,0 0.3485541136442122,-0.3848821579364372 l 6.739816087497896 6.210080693994239" fill="red" stroke="none" /><path d="M 86.10567301691215 84.25364557470407 l -2.623147136393454 -2.9727963484397506 a24.96464614164567,24.96464614164567 0 0,0 0.32466665123201577,-0.28154772063009514 l 2.571586686514665 3.0175090624895264" fill="red" stroke="none" /><path d="M 86.93701828274178 83.55741782278169 l -24.496369790428776 -30.833969000393957 a60.380271421445116,60.380271421445116 0 0,0 0.8193529364642652,-0.6395179632712806 l 23.961984298805085 31.25106535288846" fill="red" stroke="none" /><path d="M 87.22198572758235 83.33499621200491 l -9.828713706477384 -12.818545014707833 a37.15297834512222,37.15297834512222 0 0,0 0.51086025697549,-0.3847693543101105 l 9.606607295743503 12.985830958523797" fill="red" stroke="none" /><path d="M 88.09926311788651 82.69761687909137 l -2.0991182205950927 -3.0518906542168804 a24.704096903339686,24.704096903339686 0 0,0 0.3524395933888816,-0.23796878671262123 l 2.0462739327996715 3.087571353228167" fill="red" stroke="none" /><path d="M 89.00827224532344 82.1063720568725 l -7.100525940090108 -11.559071713584004 a34.56575126949003,34.56575126949003 0 0,0 0.5096603715580744,-0.30706467123492387 l 6.900503502314384 11.679582994277547" fill="red" stroke="none" /><line stroke="#e1ed5e" stroke-width="0.3" x1="56.762969772571076" x2="54.21961505331055" y1="26.818313649435495" y2="22.513508569990535" /><path d="M 56.25429882871897 25.957352633546506 a86.0,86.0 0 0,1 42.265352541879196,-11.944610805530505" fill="none" id="id24" stroke="none" /><text fill="#e1ed5e" style="font-size:6.75px; font-family:Arial;" text-anchor="middle"><textPath startOffset="22.20632615414155" xlink:href="#id24">December</textPath></text><path d="M 89.3179101791058 81.91981866633112 l -7.786020752403478 -13.178382641551286 a36.30659623182103,36.30659623182103 0 0,0 0.5408010444940892,-0.31326687126305475 l 7.558022975444068 13.310453670204387" fill="red" stroke="none" /><path d="M 90.26544431104013 81.39251694778311 l -2.1926750192832456 -4.191271236611702 a25.73017740883335,25.73017740883335 0 0,0 0.39421022541774514,-0.20192978866719297 l 2.1202043062767366 4.2283935505914005" fill="red" stroke="none" /><path d="M 90.58718382345135 81.22770947309562 l -15.503015757962748 -30.918176918904127 a55.58723986646372,55.58723986646372 0 0,0 0.8590312630595718,-0.4215229100515218 l 14.96851322789275 31.180454989090475" fill="red" stroke="none" /><path d="M 91.23893434514133 80.91482961587045 l -22.117541708336507 -48.18101685467889 a74.01505480871312,74.01505480871312 0 0,0 1.1624518370750163,-0.5215582546378268 l 21.284907752794716 48.55459543983324" fill="red" stroke="none" /><path d="M 91.90106846888425 80.62456947434976 l -24.29679459334727 -58.12629157695071 a84.0,84.0 0 0,0 1.338864521646478,-0.5461564552656921 l 23.29264620211241 58.53590891839998" fill="red" stroke="none" /><path d="M 92.23578459929587 80.48803036053334 l -7.369057842225711 -18.518913434053093 a40.93121090802113,40.93121090802113 0 0,0 0.6568812929977123,-0.2548597364199242 l 7.049193384228321 18.64301587436357" fill="red" stroke="none" /><path d="M 92.57280143429618 80.3572730644239 l -9.324349476501899 -24.66012575246838 a47.36409101955718,47.36409101955718 0 0,0 0.7650827046452653,-0.2817864169193994 l 8.898484446084066 24.816975437194102" fill="red" stroke="none" /><path d="M 93.59665428221793 80.00007090966166 l -5.283225023030313 -16.50139325376082 a38.32652434734782,38.32652434734782 0 0,0 0.6300417532315647,-0.1957570396151495 l 4.99839789708802 16.589890428258496" fill="red" stroke="none" /><path d="M 93.94186890950719 79.89281104454417 l -5.717259028648139 -18.975820410476214 a40.81839577390926,40.81839577390926 0 0,0 0.6744944109706416,-0.1969034144169014 l 5.389774399954076 19.071422153811813" fill="red" stroke="none" /><path d="M 94.28887869178378 79.79150937346287 l -7.431156384811045 -26.29474074219749 a48.3246313042811,48.3246313042811 0 0,0 0.8024238542041997,-0.21933275109070938 l 6.977434641383123 26.418760034114495" fill="red" stroke="none" /><path d="M 94.63758080256005 79.69619591428918 l -2.4358295872230458 -9.22281621488403 a30.539056804082833,30.539056804082833 0 0,0 0.5094076260197193,-0.12985934630635665 l 2.276713072518327 9.26337855735925" fill="red" stroke="none" /><path d="M 95.33964822691252 79.52364482259891 l -2.561253177041096 -11.25347018978259 a32.54125682710633,32.54125682710633 0 0,0 0.5472467435086433,-0.11960694200229925 l 2.3671637093789313 11.295890629880757" fill="red" stroke="none" /><path d="M 96.04723909329186 79.375362276772 l -6.571368313125745 -34.28795568538184 a55.9119862882286,55.9119862882286 0 0,0 0.9467892910915343,-0.17301969122213207 l 5.980183900931317 34.3959908579547" fill="red" stroke="none" /><path d="M 96.40284397218896 79.31037775812273 l -3.4821754965630363 -20.02829319796058 a41.328749952034386,41.328749952034386 0 0,0 0.7019408597466474,-0.11582625631956833 l 3.136905430677503 20.085265717219777" fill="red" stroke="none" /><path d="M 98.55514903715128 79.0497635885617 l -1.5025851234240386 -21.787377642035672 a42.839129711822565,42.839129711822565 0 0,0 0.7360944664146517,-0.0444032284009216 l 1.1273286081697638 21.8100141398169" fill="red" stroke="none" /><path d="M 99.27714615592234 79.0124445844662 l -0.22155029753762337 -6.432557819253027 a27.436372008544275,27.436372008544275 0 0,0 0.47213209860822286,-0.012193779181680447 l 0.1107915637345215 6.435418390577067" fill="red" stroke="none" /></svg>